<?xml version="1.0" encoding="iso-8859-1"?>
<!-- Generator: Adobe Illustrator 19.0.0, SVG Export Plug-In . SVG Version: 6.00 Build 0)  -->
<svg version="1.1" id="Layer_1" xmlns="http://www.w3.org/2000/svg" xmlns:xlink="http://www.w3.org/1999/xlink" x="0px" y="0px"
	 viewBox="0 0 512 512" style="enable-background:new 0 0 512 512;" xml:space="preserve">
<g>
	<circle style="fill:#E21B1B;" cx="150.814" cy="45.295" r="41.295"/>
	<path style="fill:#E21B1B;" d="M196.917,103.094H104.71c-32.551,0.04-58.935,26.424-58.975,58.975v115.646
		c0,11.848,9.6,21.448,21.448,21.448s21.448-9.6,21.448-21.448v-103.71h12.872v97.766v0.136v218.637
		c0,11.848,9.6,21.448,21.448,21.448s21.448-9.6,21.448-21.448V314.651h12.856v175.893c-0.008,11.848,9.592,21.448,21.44,21.456
		s21.448-9.592,21.456-21.44c0-0.008,0-0.008,0-0.016V173.981h12.872V277.7c0.008,11.848,9.608,21.448,21.456,21.44
		c11.84-0.008,21.432-9.6,21.44-21.44v-115.63C255.844,129.518,229.468,103.15,196.917,103.094z"/>
</g>
<rect x="369.282" width="32" height="162.021"/>
<rect x="304.243" y="65.007" width="162.021" height="32"/>
<g>
</g>
<g>
</g>
<g>
</g>
<g>
</g>
<g>
</g>
<g>
</g>
<g>
</g>
<g>
</g>
<g>
</g>
<g>
</g>
<g>
</g>
<g>
</g>
<g>
</g>
<g>
</g>
<g>
</g>
</svg>
